<?xml version="1.0" encoding="utf-8"?>
<!-- Generator: Adobe Illustrator 22.1.0, SVG Export Plug-In . SVG Version: 6.00 Build 0)  -->
<svg version="1.1" id="Layer_1" xmlns="http://www.w3.org/2000/svg" xmlns:xlink="http://www.w3.org/1999/xlink" x="0px" y="0px"
	 viewBox="0 0 199 40.8" style="enable-background:new 0 0 199 40.8;" xml:space="preserve">
<style type="text/css">
	.st0{fill:#E6DDEA;}
	.st1{fill:#612B7C;}
	.st2{fill:#DAEAC1;}
	.st3{fill:#7FC342;}
	.st4{fill:#FFFFFF;}
	.st5{fill:#989699;}
</style>
<g>
	<g>
		<g>
			<g>
				<path class="st1" d="M179.5,0l-8.3,0c-0.8,0-1.6,0.3-2.2,0.9l-16.4,17.4c-1.1,1.1-1.1,2.9,0,4.1l16.4,17.4
					c0.6,0.6,1.3,0.9,2.2,0.9l8.3,0c0.8,0,1.6-0.3,2.2-0.9l16.4-17.4c1.1-1.1,1.1-2.9,0-4.1L181.7,0.9C181.2,0.3,180.4,0,179.5,0z"
					/>
			</g>
		</g>
		<g>
			<path class="st1" d="M175.6,0l-8.3,0c-0.8,0-1.6,0.3-2.2,0.9l-16.4,17.4c-1.1,1.1-1.1,2.9,0,4.1l16.4,17.4
				c0.6,0.6,1.3,0.9,2.2,0.9l8.3,0c0.8,0,1.6-0.3,2.2-0.9l16.4-17.4c1.1-1.1,1.1-2.9,0-4.1L177.7,0.9C177.2,0.3,176.4,0,175.6,0z"/>
		</g>
		<g>
			<path class="st1" d="M171.6,0l-8.3,0c-0.8,0-1.6,0.3-2.2,0.9l-16.4,17.4c-1.1,1.1-1.1,2.9,0,4.1l16.4,17.4
				c0.6,0.6,1.3,0.9,2.2,0.9l8.3,0c0.8,0,1.6-0.3,2.2-0.9l16.4-17.4c1.1-1.1,1.1-2.9,0-4.1L173.7,0.9C173.2,0.3,172.4,0,171.6,0z"/>
		</g>
		<g>
			<path class="st1" d="M167.6,0l-8.3,0c-0.8,0-1.6,0.3-2.2,0.9l-16.4,17.4c-1.1,1.1-1.1,2.9,0,4.1l16.4,17.4
				c0.6,0.6,1.3,0.9,2.2,0.9l8.3,0c0.8,0,1.6-0.3,2.2-0.9l16.4-17.4c1.1-1.1,1.1-2.9,0-4.1L169.7,0.9C169.2,0.3,168.4,0,167.6,0z"/>
		</g>
		<g>
			<path class="st1" d="M163.6,0l-8.3,0c-0.8,0-1.6,0.3-2.2,0.9l-16.4,17.4c-1.1,1.1-1.1,2.9,0,4.1l16.4,17.4
				c0.6,0.6,1.3,0.9,2.2,0.9l8.3,0c0.8,0,1.6-0.3,2.2-0.9l16.4-17.4c1.1-1.1,1.1-2.9,0-4.1L165.7,0.9C165.2,0.3,164.4,0,163.6,0z"/>
		</g>
		<g>
			<path class="st1" d="M159.6,0l-8.3,0c-0.8,0-1.6,0.3-2.2,0.9l-16.4,17.4c-1.1,1.1-1.1,2.9,0,4.1l16.4,17.4
				c0.6,0.6,1.3,0.9,2.2,0.9l8.3,0c0.8,0,1.6-0.3,2.2-0.9l16.4-17.4c1.1-1.1,1.1-2.9,0-4.1L161.7,0.9C161.2,0.3,160.4,0,159.6,0z"/>
		</g>
		<g>
			<path class="st1" d="M155.6,0l-8.3,0c-0.8,0-1.6,0.3-2.2,0.9l-16.4,17.4c-1.1,1.1-1.1,2.9,0,4.1l16.4,17.4
				c0.6,0.6,1.3,0.9,2.2,0.9l8.3,0c0.8,0,1.6-0.3,2.2-0.9l16.4-17.4c1.1-1.1,1.1-2.9,0-4.1L157.7,0.9C157.2,0.3,156.4,0,155.6,0z"/>
		</g>
		<g>
			<path class="st1" d="M151.6,0l-8.3,0c-0.8,0-1.6,0.3-2.2,0.9l-16.4,17.4c-1.1,1.1-1.1,2.9,0,4.1l16.4,17.4
				c0.6,0.6,1.3,0.9,2.2,0.9l8.3,0c0.8,0,1.6-0.3,2.2-0.9l16.4-17.4c1.1-1.1,1.1-2.9,0-4.1L153.7,0.9C153.2,0.3,152.4,0,151.6,0z"/>
		</g>
		<g>
			<path class="st1" d="M147.6,0l-8.3,0c-0.8,0-1.6,0.3-2.2,0.9l-16.4,17.4c-1.1,1.1-1.1,2.9,0,4.1l16.4,17.4
				c0.6,0.6,1.3,0.9,2.2,0.9l8.3,0c0.8,0,1.6-0.3,2.2-0.9l16.4-17.4c1.1-1.1,1.1-2.9,0-4.1L149.7,0.9C149.2,0.3,148.4,0,147.6,0z"/>
		</g>
		<g>
			<path class="st1" d="M143.6,0l-8.3,0c-0.8,0-1.6,0.3-2.2,0.9l-16.4,17.4c-1.1,1.1-1.1,2.9,0,4.1l16.4,17.4
				c0.6,0.6,1.3,0.9,2.2,0.9l8.3,0c0.8,0,1.6-0.3,2.2-0.9l16.4-17.4c1.1-1.1,1.1-2.9,0-4.1L145.8,0.9C145.2,0.3,144.4,0,143.6,0z"/>
		</g>
		<g>
			<path class="st1" d="M139.6,0l-8.3,0c-0.8,0-1.6,0.3-2.2,0.9l-16.4,17.4c-1.1,1.1-1.1,2.9,0,4.1l16.4,17.4
				c0.6,0.6,1.3,0.9,2.2,0.9l8.3,0c0.8,0,1.6-0.3,2.2-0.9l16.4-17.4c1.1-1.1,1.1-2.9,0-4.1L141.8,0.9C141.2,0.3,140.4,0,139.6,0z"/>
		</g>
		<g>
			<path class="st1" d="M135.6,0l-8.3,0c-0.8,0-1.6,0.3-2.2,0.9l-16.4,17.4c-1.1,1.1-1.1,2.9,0,4.1l16.4,17.4
				c0.6,0.6,1.3,0.9,2.2,0.9l8.3,0c0.8,0,1.6-0.3,2.2-0.9l16.4-17.4c1.1-1.1,1.1-2.9,0-4.1L137.8,0.9C137.2,0.3,136.4,0,135.6,0z"/>
		</g>
		<g>
			<path class="st1" d="M131.6,0l-8.3,0c-0.8,0-1.6,0.3-2.2,0.9l-16.4,17.4c-1.1,1.1-1.1,2.9,0,4.1l16.4,17.4
				c0.6,0.6,1.3,0.9,2.2,0.9l8.3,0c0.8,0,1.6-0.3,2.2-0.9l16.4-17.4c1.1-1.1,1.1-2.9,0-4.1L133.8,0.9C133.2,0.3,132.4,0,131.6,0z"/>
		</g>
		<g>
			<path class="st1" d="M127.6,0l-8.3,0c-0.8,0-1.6,0.3-2.2,0.9l-16.4,17.4c-1.1,1.1-1.1,2.9,0,4.1l16.4,17.4
				c0.6,0.6,1.3,0.9,2.2,0.9l8.3,0c0.8,0,1.6-0.3,2.2-0.9l16.4-17.4c1.1-1.1,1.1-2.9,0-4.1L129.8,0.9C129.2,0.3,128.4,0,127.6,0z"/>
		</g>
		<g>
			<path class="st1" d="M123.6,0l-8.3,0c-0.8,0-1.6,0.3-2.2,0.9L96.7,18.4c-1.1,1.1-1.1,2.9,0,4.1l16.4,17.4
				c0.6,0.6,1.3,0.9,2.2,0.9l8.3,0c0.8,0,1.6-0.3,2.2-0.9l16.4-17.4c1.1-1.1,1.1-2.9,0-4.1L125.8,0.9C125.2,0.3,124.4,0,123.6,0z"/>
		</g>
		<g>
			<path class="st1" d="M119.6,0l-8.3,0c-0.8,0-1.6,0.3-2.2,0.9L92.7,18.4c-1.1,1.1-1.1,2.9,0,4.1l16.4,17.4
				c0.6,0.6,1.3,0.9,2.2,0.9l8.3,0c0.8,0,1.6-0.3,2.2-0.9l16.4-17.4c1.1-1.1,1.1-2.9,0-4.1L121.8,0.9C121.2,0.3,120.4,0,119.6,0z"/>
		</g>
		<g>
			<path class="st1" d="M115.6,0l-8.3,0c-0.8,0-1.6,0.3-2.2,0.9L88.7,18.4c-1.1,1.1-1.1,2.9,0,4.1l16.4,17.4
				c0.6,0.6,1.3,0.9,2.2,0.9l8.3,0c0.8,0,1.6-0.3,2.2-0.9l16.4-17.4c1.1-1.1,1.1-2.9,0-4.1L117.8,0.9C117.2,0.3,116.4,0,115.6,0z"/>
		</g>
		<g>
			<path class="st1" d="M111.6,0l-8.3,0c-0.8,0-1.6,0.3-2.2,0.9L84.7,18.4c-1.1,1.1-1.1,2.9,0,4.1l16.4,17.4
				c0.6,0.6,1.3,0.9,2.2,0.9l8.3,0c0.8,0,1.6-0.3,2.2-0.9l16.4-17.4c1.1-1.1,1.1-2.9,0-4.1L113.8,0.9C113.2,0.3,112.4,0,111.6,0z"/>
		</g>
		<g>
			<path class="st1" d="M107.6,0l-8.3,0c-0.8,0-1.6,0.3-2.2,0.9L80.7,18.4c-1.1,1.1-1.1,2.9,0,4.1l16.4,17.4
				c0.6,0.6,1.3,0.9,2.2,0.9l8.3,0c0.8,0,1.6-0.3,2.2-0.9l16.4-17.4c1.1-1.1,1.1-2.9,0-4.1L109.8,0.9C109.2,0.3,108.4,0,107.6,0z"/>
		</g>
		<g>
			<path class="st1" d="M103.6,0l-8.3,0c-0.8,0-1.6,0.3-2.2,0.9L76.7,18.4c-1.1,1.1-1.1,2.9,0,4.1l16.4,17.4
				c0.6,0.6,1.3,0.9,2.2,0.9l8.3,0c0.8,0,1.6-0.3,2.2-0.9l16.4-17.4c1.1-1.1,1.1-2.9,0-4.1L105.8,0.9C105.2,0.3,104.4,0,103.6,0z"/>
		</g>
		<g>
			<path class="st1" d="M99.6,0l-8.3,0c-0.8,0-1.6,0.3-2.2,0.9L72.7,18.4c-1.1,1.1-1.1,2.9,0,4.1l16.4,17.4c0.6,0.6,1.3,0.9,2.2,0.9
				l8.3,0c0.8,0,1.6-0.3,2.2-0.9l16.4-17.4c1.1-1.1,1.1-2.9,0-4.1L101.8,0.9C101.2,0.3,100.4,0,99.6,0z"/>
		</g>
		<g>
			<path class="st1" d="M95.6,0l-8.3,0c-0.8,0-1.6,0.3-2.2,0.9L68.7,18.4c-1.1,1.1-1.1,2.9,0,4.1l16.4,17.4c0.6,0.6,1.3,0.9,2.2,0.9
				l8.3,0c0.8,0,1.6-0.3,2.2-0.9l16.4-17.4c1.1-1.1,1.1-2.9,0-4.1L97.8,0.9C97.2,0.3,96.4,0,95.6,0z"/>
		</g>
		<g>
			<path class="st1" d="M91.6,0l-8.3,0c-0.8,0-1.6,0.3-2.2,0.9L64.8,18.4c-1.1,1.1-1.1,2.9,0,4.1l16.4,17.4c0.6,0.6,1.3,0.9,2.2,0.9
				l8.3,0c0.8,0,1.6-0.3,2.2-0.9l16.4-17.4c1.1-1.1,1.1-2.9,0-4.1L93.8,0.9C93.2,0.3,92.5,0,91.6,0z"/>
		</g>
		<g>
			<path class="st1" d="M87.6,0l-8.3,0c-0.8,0-1.6,0.3-2.2,0.9L60.8,18.4c-1.1,1.1-1.1,2.9,0,4.1l16.4,17.4c0.6,0.6,1.3,0.9,2.2,0.9
				l8.3,0c0.8,0,1.6-0.3,2.2-0.9l16.4-17.4c1.1-1.1,1.1-2.9,0-4.1L89.8,0.9C89.2,0.3,88.5,0,87.6,0z"/>
		</g>
		<g>
			<path class="st1" d="M83.6,0l-8.3,0c-0.8,0-1.6,0.3-2.2,0.9L56.8,18.4c-1.1,1.1-1.1,2.9,0,4.1l16.4,17.4c0.6,0.6,1.3,0.9,2.2,0.9
				l8.3,0c0.8,0,1.6-0.3,2.2-0.9l16.4-17.4c1.1-1.1,1.1-2.9,0-4.1L85.8,0.9C85.2,0.3,84.5,0,83.6,0z"/>
		</g>
		<g>
			<path class="st1" d="M79.6,0l-8.3,0c-0.8,0-1.6,0.3-2.2,0.9L52.8,18.4c-1.1,1.1-1.1,2.9,0,4.1l16.4,17.4c0.6,0.6,1.3,0.9,2.2,0.9
				l8.3,0c0.8,0,1.6-0.3,2.2-0.9l16.4-17.4c1.1-1.1,1.1-2.9,0-4.1L81.8,0.9C81.2,0.3,80.5,0,79.6,0z"/>
		</g>
		<g>
			<path class="st1" d="M75.6,0l-8.3,0c-0.8,0-1.6,0.3-2.2,0.9L48.8,18.4c-1.1,1.1-1.1,2.9,0,4.1l16.4,17.4c0.6,0.6,1.3,0.9,2.2,0.9
				l8.3,0c0.8,0,1.6-0.3,2.2-0.9l16.4-17.4c1.1-1.1,1.1-2.9,0-4.1L77.8,0.9C77.2,0.3,76.5,0,75.6,0z"/>
		</g>
		<g>
			<path class="st1" d="M71.6,0l-8.3,0c-0.8,0-1.6,0.3-2.2,0.9L44.8,18.4c-1.1,1.1-1.1,2.9,0,4.1l16.4,17.4c0.6,0.6,1.3,0.9,2.2,0.9
				l8.3,0c0.8,0,1.6-0.3,2.2-0.9l16.4-17.4c1.1-1.1,1.1-2.9,0-4.1L73.8,0.9C73.3,0.3,72.5,0,71.6,0z"/>
		</g>
		<g>
			<path class="st1" d="M67.7,0l-8.3,0c-0.8,0-1.6,0.3-2.2,0.9L40.8,18.4c-1.1,1.1-1.1,2.9,0,4.1l16.4,17.4c0.6,0.6,1.3,0.9,2.2,0.9
				l8.3,0c0.8,0,1.6-0.3,2.2-0.9l16.4-17.4c1.1-1.1,1.1-2.9,0-4.1L69.8,0.9C69.3,0.3,68.5,0,67.7,0z"/>
		</g>
		<g>
			<path class="st1" d="M63.7,0l-8.3,0c-0.8,0-1.6,0.3-2.2,0.9L36.8,18.4c-1.1,1.1-1.1,2.9,0,4.1l16.4,17.4c0.6,0.6,1.3,0.9,2.2,0.9
				l8.3,0c0.8,0,1.6-0.3,2.2-0.9l16.4-17.4c1.1-1.1,1.1-2.9,0-4.1L65.8,0.9C65.3,0.3,64.5,0,63.7,0z"/>
		</g>
		<g>
			<path class="st1" d="M59.7,0l-8.3,0c-0.8,0-1.6,0.3-2.2,0.9L32.8,18.4c-1.1,1.1-1.1,2.9,0,4.1l16.4,17.4c0.6,0.6,1.3,0.9,2.2,0.9
				l8.3,0c0.8,0,1.6-0.3,2.2-0.9l16.4-17.4c1.1-1.1,1.1-2.9,0-4.1L61.8,0.9C61.3,0.3,60.5,0,59.7,0z"/>
		</g>
		<g>
			<path class="st1" d="M55.7,0l-8.3,0c-0.8,0-1.6,0.3-2.2,0.9L28.8,18.4c-1.1,1.1-1.1,2.9,0,4.1l16.4,17.4c0.6,0.6,1.3,0.9,2.2,0.9
				l8.3,0c0.8,0,1.6-0.3,2.2-0.9l16.4-17.4c1.1-1.1,1.1-2.9,0-4.1L57.8,0.9C57.3,0.3,56.5,0,55.7,0z"/>
		</g>
		<g>
			<path class="st1" d="M51.7,0l-8.3,0c-0.8,0-1.6,0.3-2.2,0.9L24.8,18.4c-1.1,1.1-1.1,2.9,0,4.1l16.4,17.4c0.6,0.6,1.3,0.9,2.2,0.9
				l8.3,0c0.8,0,1.6-0.3,2.2-0.9l16.4-17.4c1.1-1.1,1.1-2.9,0-4.1L53.8,0.9C53.3,0.3,52.5,0,51.7,0z"/>
		</g>
		<g>
			<path class="st1" d="M47.7,0l-8.3,0c-0.8,0-1.6,0.3-2.2,0.9L20.8,18.4c-1.1,1.1-1.1,2.9,0,4.1l16.4,17.4c0.6,0.6,1.3,0.9,2.2,0.9
				l8.3,0c0.8,0,1.6-0.3,2.2-0.9l16.4-17.4c1.1-1.1,1.1-2.9,0-4.1L49.8,0.9C49.3,0.3,48.5,0,47.7,0z"/>
		</g>
		<g>
			<path class="st1" d="M43.7,0l-8.3,0c-0.8,0-1.6,0.3-2.2,0.9L16.8,18.4c-1.1,1.1-1.1,2.9,0,4.1l16.4,17.4c0.6,0.6,1.3,0.9,2.2,0.9
				l8.3,0c0.8,0,1.6-0.3,2.2-0.9l16.4-17.4c1.1-1.1,1.1-2.9,0-4.1L45.8,0.9C45.3,0.3,44.5,0,43.7,0z"/>
		</g>
		<g>
			<path class="st1" d="M39.7,0l-8.3,0c-0.8,0-1.6,0.3-2.2,0.9L12.8,18.4c-1.1,1.1-1.1,2.9,0,4.1l16.4,17.4c0.6,0.6,1.3,0.9,2.2,0.9
				l8.3,0c0.8,0,1.6-0.3,2.2-0.9l16.4-17.4c1.1-1.1,1.1-2.9,0-4.1L41.8,0.9C41.3,0.3,40.5,0,39.7,0z"/>
		</g>
		<g>
			<path class="st1" d="M35.7,0l-8.3,0c-0.8,0-1.6,0.3-2.2,0.9L8.8,18.4c-1.1,1.1-1.1,2.9,0,4.1l16.4,17.4c0.6,0.6,1.3,0.9,2.2,0.9
				l8.3,0c0.8,0,1.6-0.3,2.2-0.9l16.4-17.4c1.1-1.1,1.1-2.9,0-4.1L37.8,0.9C37.3,0.3,36.5,0,35.7,0z"/>
		</g>
		<g>
			<path class="st1" d="M31.7,0l-8.3,0c-0.8,0-1.6,0.3-2.2,0.9L4.8,18.4c-1.1,1.1-1.1,2.9,0,4.1l16.4,17.4c0.6,0.6,1.3,0.9,2.2,0.9
				l8.3,0c0.8,0,1.6-0.3,2.2-0.9l16.4-17.4c1.1-1.1,1.1-2.9,0-4.1L33.9,0.9C33.3,0.3,32.5,0,31.7,0z"/>
		</g>
		<g>
			<g>
				<path class="st1" d="M27.7,0l-8.3,0c-0.8,0-1.6,0.3-2.2,0.9L0.8,18.4c-1.1,1.1-1.1,2.9,0,4.1l16.4,17.4c0.6,0.6,1.3,0.9,2.2,0.9
					l8.3,0c0.8,0,1.6-0.3,2.2-0.9l16.4-17.4c1.1-1.1,1.1-2.9,0-4.1L29.9,0.9C29.3,0.3,28.5,0,27.7,0z"/>
			</g>
		</g>
	</g>
</g>
</svg>
