<?xml version="1.0" encoding="utf-8"?>
<!-- Generator: Adobe Illustrator 22.1.0, SVG Export Plug-In . SVG Version: 6.00 Build 0)  -->
<svg version="1.1" id="Layer_1" xmlns="http://www.w3.org/2000/svg" xmlns:xlink="http://www.w3.org/1999/xlink" x="0px" y="0px"
	 viewBox="0 0 960 560" style="enable-background:new 0 0 960 560;" xml:space="preserve">
<style type="text/css">
	.st0{clip-path:url(#SVGID_2_);}
	.st1{fill:#B7D997;}
</style>
<g>
	<defs>
		<rect id="SVGID_1_" y="0" width="960" height="560"/>
	</defs>
	<clipPath id="SVGID_2_">
		<use xlink:href="#SVGID_1_"  style="overflow:visible;"/>
	</clipPath>
	<g class="st0">
		<g>
			<path class="st1" d="M956.7,108h-91.6c-9.1,0-17.8,3.8-24,10.4l-181.9,193c-12,12.7-12,32.5,0,45.2l181.8,193
				c6.2,6.6,14.9,10.4,24,10.4h91.6c9.1,0,17.8-3.8,24-10.4l181.8-193c12-12.7,12-32.5,0-45.2l-181.7-193
				C974.5,111.7,965.8,108,956.7,108z"/>
		</g>
		<g>
			<path class="st1" d="M64.8,109.4H8.2c-5.6,0-11,2.3-14.8,6.4L-119,235.1c-7.4,7.8-7.4,20.1,0,27.9L-6.7,382.4
				c3.9,4.1,9.2,6.4,14.8,6.4h56.6c5.6,0,11-2.3,14.8-6.4l112.4-119.3c7.4-7.8,7.4-20.1,0-27.9L79.6,115.8
				C75.8,111.7,70.4,109.4,64.8,109.4z"/>
		</g>
	</g>
</g>
</svg>
