<?xml version="1.0" encoding="utf-8"?>
<!-- Generator: Adobe Illustrator 22.1.0, SVG Export Plug-In . SVG Version: 6.00 Build 0)  -->
<svg version="1.1" id="Layer_1" xmlns="http://www.w3.org/2000/svg" xmlns:xlink="http://www.w3.org/1999/xlink" x="0px" y="0px"
	 viewBox="0 0 960 560" style="enable-background:new 0 0 960 560;" xml:space="preserve">
<style type="text/css">
	.st0{clip-path:url(#SVGID_2_);}
	.st1{fill:none;stroke:#80C241;stroke-width:1.2403;stroke-miterlimit:10;}
	.st2{fill:none;stroke:#80C241;stroke-miterlimit:10;}
</style>
<g>
	<defs>
		<rect id="SVGID_1_" y="0" width="960" height="560"/>
	</defs>
	<clipPath id="SVGID_2_">
		<use xlink:href="#SVGID_1_"  style="overflow:visible;"/>
	</clipPath>
	<g class="st0">
		<g>
			<path class="st1" d="M905,0.6H791.4c-11.3,0-22.1,4.7-29.8,12.9L536,252.9c-14.9,15.8-14.9,40.3,0,56.1l225.5,239.4
				c7.7,8.2,18.5,12.9,29.8,12.9h113.6c11.3,0,22.1-4.7,29.8-12.9L1160.1,309c14.9-15.8,14.9-40.3,0-56.1L934.8,13.5
				C927.1,5.2,916.3,0.6,905,0.6z"/>
		</g>
		<g>
			<path class="st2" d="M64.8,109.4H8.2c-5.6,0-11,2.3-14.8,6.4L-119,235.1c-7.4,7.8-7.4,20.1,0,27.9L-6.7,382.4
				c3.9,4.1,9.2,6.4,14.8,6.4h56.6c5.6,0,11-2.3,14.8-6.4l112.4-119.3c7.4-7.8,7.4-20.1,0-27.9L79.6,115.8
				C75.8,111.7,70.4,109.4,64.8,109.4z"/>
		</g>
	</g>
</g>
</svg>
