<?xml version="1.0" encoding="utf-8"?>
<!-- Generator: Adobe Illustrator 22.1.0, SVG Export Plug-In . SVG Version: 6.00 Build 0)  -->
<svg version="1.1" id="Layer_1" xmlns="http://www.w3.org/2000/svg" xmlns:xlink="http://www.w3.org/1999/xlink" x="0px" y="0px"
	 viewBox="0 0 960 560" style="enable-background:new 0 0 960 560;" xml:space="preserve">
<style type="text/css">
	.st0{clip-path:url(#SVGID_2_);}
	.st1{fill:none;stroke:#BEA3CC;stroke-width:2;stroke-miterlimit:10;}
</style>
<g>
	<g>
		<defs>
			<rect id="SVGID_1_" x="171" y="0" width="789" height="560"/>
		</defs>
		<clipPath id="SVGID_2_">
			<use xlink:href="#SVGID_1_"  style="overflow:visible;"/>
		</clipPath>
		<g class="st0">
			<g>
				<path class="st1" d="M742.1,321.1H737c-0.5,0-1,0.2-1.3,0.6l-10.2,10.8c-0.7,0.7-0.7,1.8,0,2.5l10.2,10.8
					c0.3,0.4,0.8,0.6,1.3,0.6h5.1c0.5,0,1-0.2,1.3-0.6l10.2-10.8c0.7-0.7,0.7-1.8,0-2.5l-10.2-10.8
					C743.1,321.3,742.6,321.1,742.1,321.1z"/>
			</g>
			<g>
				<path class="st1" d="M884.1,63.1H879c-0.5,0-1,0.2-1.3,0.6l-10.2,10.8c-0.7,0.7-0.7,1.8,0,2.5l10.2,10.8
					c0.3,0.4,0.8,0.6,1.3,0.6h5.1c0.5,0,1-0.2,1.3-0.6L895.6,77c0.7-0.7,0.7-1.8,0-2.5l-10.2-10.8C885.1,63.3,884.6,63.1,884.1,63.1
					z"/>
			</g>
			<g>
				<path class="st1" d="M783.1,166.1H778c-0.5,0-1,0.2-1.3,0.6l-10.2,10.8c-0.7,0.7-0.7,1.8,0,2.5l10.2,10.8
					c0.3,0.4,0.8,0.6,1.3,0.6h5.1c0.5,0,1-0.2,1.3-0.6l10.2-10.8c0.7-0.7,0.7-1.8,0-2.5l-10.2-10.8
					C784.1,166.3,783.6,166.1,783.1,166.1z"/>
			</g>
			<g>
				<path class="st1" d="M659.1,214.1H654c-0.5,0-1,0.2-1.3,0.6l-10.2,10.8c-0.7,0.7-0.7,1.8,0,2.5l10.2,10.8
					c0.3,0.4,0.8,0.6,1.3,0.6h5.1c0.5,0,1-0.2,1.3-0.6l10.2-10.8c0.7-0.7,0.7-1.8,0-2.5l-10.2-10.8
					C660.1,214.3,659.6,214.1,659.1,214.1z"/>
			</g>
			<g>
				<path class="st1" d="M748.1,22.1H743c-0.5,0-1,0.2-1.3,0.6l-10.2,10.8c-0.7,0.7-0.7,1.8,0,2.5l10.2,10.8
					c0.3,0.4,0.8,0.6,1.3,0.6h5.1c0.5,0,1-0.2,1.3-0.6L759.6,36c0.7-0.7,0.7-1.8,0-2.5l-10.2-10.8C749.1,22.3,748.6,22.1,748.1,22.1
					z"/>
			</g>
			<g>
				<path class="st1" d="M781.1,359.1H776c-0.5,0-1,0.2-1.3,0.6l-10.2,10.8c-0.7,0.7-0.7,1.8,0,2.5l10.2,10.8
					c0.3,0.4,0.8,0.6,1.3,0.6h5.1c0.5,0,1-0.2,1.3-0.6l10.2-10.8c0.7-0.7,0.7-1.8,0-2.5l-10.2-10.8
					C782.1,359.3,781.6,359.1,781.1,359.1z"/>
			</g>
			<g>
				<path class="st1" d="M799.1,346.1H794c-0.5,0-1,0.2-1.3,0.6l-10.2,10.8c-0.7,0.7-0.7,1.8,0,2.5l10.2,10.8
					c0.3,0.4,0.8,0.6,1.3,0.6h5.1c0.5,0,1-0.2,1.3-0.6l10.2-10.8c0.7-0.7,0.7-1.8,0-2.5l-10.2-10.8
					C800.1,346.3,799.6,346.1,799.1,346.1z"/>
			</g>
			<g>
				<path class="st1" d="M781.1,333.1H776c-0.5,0-1,0.2-1.3,0.6l-10.2,10.8c-0.7,0.7-0.7,1.8,0,2.5l10.2,10.8
					c0.3,0.4,0.8,0.6,1.3,0.6h5.1c0.5,0,1-0.2,1.3-0.6l10.2-10.8c0.7-0.7,0.7-1.8,0-2.5l-10.2-10.8
					C782.1,333.3,781.6,333.1,781.1,333.1z"/>
			</g>
			<g>
				<path class="st1" d="M587.1,369.1H582c-0.5,0-1,0.2-1.3,0.6l-10.2,10.8c-0.7,0.7-0.7,1.8,0,2.5l10.2,10.8
					c0.3,0.4,0.8,0.6,1.3,0.6h5.1c0.5,0,1-0.2,1.3-0.6l10.2-10.8c0.7-0.7,0.7-1.8,0-2.5l-10.2-10.8
					C588.1,369.3,587.6,369.1,587.1,369.1z"/>
			</g>
			<g>
				<path class="st1" d="M629.1,349.1H624c-0.5,0-1,0.2-1.3,0.6l-10.2,10.8c-0.7,0.7-0.7,1.8,0,2.5l10.2,10.8
					c0.3,0.4,0.8,0.6,1.3,0.6h5.1c0.5,0,1-0.2,1.3-0.6l10.2-10.8c0.7-0.7,0.7-1.8,0-2.5l-10.2-10.8
					C630.1,349.3,629.6,349.1,629.1,349.1z"/>
			</g>
			<g>
				<path class="st1" d="M371.1,497.1H366c-0.5,0-1,0.2-1.3,0.6l-10.2,10.8c-0.7,0.7-0.7,1.8,0,2.5l10.2,10.8
					c0.3,0.4,0.8,0.6,1.3,0.6h5.1c0.5,0,1-0.2,1.3-0.6l10.2-10.8c0.7-0.7,0.7-1.8,0-2.5l-10.2-10.8
					C372.1,497.3,371.6,497.1,371.1,497.1z"/>
			</g>
			<g>
				<path class="st1" d="M545.1,287.1H540c-0.5,0-1,0.2-1.3,0.6l-10.2,10.8c-0.7,0.7-0.7,1.8,0,2.5l10.2,10.8
					c0.3,0.4,0.8,0.6,1.3,0.6h5.1c0.5,0,1-0.2,1.3-0.6l10.2-10.8c0.7-0.7,0.7-1.8,0-2.5l-10.2-10.8
					C546.1,287.3,545.6,287.1,545.1,287.1z"/>
			</g>
			<g>
				<path class="st1" d="M515.1,369.1H510c-0.5,0-1,0.2-1.3,0.6l-10.2,10.8c-0.7,0.7-0.7,1.8,0,2.5l10.2,10.8
					c0.3,0.4,0.8,0.6,1.3,0.6h5.1c0.5,0,1-0.2,1.3-0.6l10.2-10.8c0.7-0.7,0.7-1.8,0-2.5l-10.2-10.8
					C516.1,369.3,515.6,369.1,515.1,369.1z"/>
			</g>
			<g>
				<path class="st1" d="M1126,108h-91.6c-9.1,0-17.8,3.8-24,10.4l-181.9,193c-12,12.7-12,32.5,0,45.2l181.8,193
					c6.2,6.6,14.9,10.4,24,10.4h91.6c9.1,0,17.8-3.8,24-10.4l181.8-193c12-12.7,12-32.5,0-45.2l-181.7-193
					C1143.8,111.7,1135.1,108,1126,108z"/>
			</g>
			<g>
				<path class="st1" d="M886.5,428h-56.6c-5.6,0-11,2.3-14.8,6.4L702.7,553.7c-7.4,7.8-7.4,20.1,0,27.9L815,701
					c3.9,4.1,9.2,6.4,14.8,6.4h56.6c5.6,0,11-2.3,14.8-6.4l112.4-119.3c7.4-7.8,7.4-20.1,0-27.9L901.3,434.4
					C897.5,430.3,892.1,428,886.5,428z"/>
			</g>
			<g>
				<path class="st1" d="M1051.7-65h-35c-3.5,0-6.8,1.4-9.2,4l-69.4,73.7c-4.6,4.9-4.6,12.4,0,17.3l69.4,73.7c2.4,2.5,5.7,4,9.2,4
					h35c3.5,0,6.8-1.4,9.2-4l69.4-73.7c4.6-4.8,4.6-12.4,0-17.3L1060.8-61C1058.5-63.6,1055.1-65,1051.7-65z"/>
			</g>
			<g>
				<path class="st1" d="M706.7,371h-35c-3.5,0-6.8,1.4-9.2,4l-69.4,73.7c-4.6,4.9-4.6,12.4,0,17.3l69.4,73.7c2.4,2.5,5.7,4,9.2,4
					h35c3.5,0,6.8-1.4,9.2-4l69.4-73.7c4.6-4.9,4.6-12.4,0-17.3L715.8,375C713.5,372.4,710.1,371,706.7,371z"/>
			</g>
			<g>
				<path class="st1" d="M549.7,511h-35c-3.5,0-6.8,1.4-9.2,4l-69.4,73.7c-4.6,4.9-4.6,12.4,0,17.3l69.4,73.7c2.4,2.5,5.7,4,9.2,4
					h35c3.5,0,6.8-1.4,9.2-4l69.4-73.7c4.6-4.8,4.6-12.4,0-17.3L558.8,515C556.5,512.4,553.1,511,549.7,511z"/>
			</g>
			<g>
				<path class="st1" d="M818,213h-21.6c-2.1,0-4.2,0.9-5.7,2.4l-43,45.6c-2.8,3-2.8,7.7,0,10.7l43,45.6c1.5,1.6,3.5,2.4,5.7,2.4
					H818c2.1,0,4.2-0.9,5.7-2.4l43-45.6c2.8-3,2.8-7.7,0-10.7l-43-45.6C822.2,213.9,820.1,213,818,213z"/>
			</g>
			<g>
				<path class="st1" d="M962,59h-21.6c-2.1,0-4.2,0.9-5.7,2.4l-43,45.6c-2.8,3-2.8,7.7,0,10.7l43,45.6c1.5,1.6,3.5,2.4,5.7,2.4H962
					c2.1,0,4.2-0.9,5.7-2.4l43-45.6c2.8-3,2.8-7.7,0-10.7l-43-45.6C966.2,59.9,964.1,59,962,59z"/>
			</g>
			<g>
				<path class="st1" d="M799.9,381.6h-13.4c-1.3,0-2.6,0.5-3.5,1.5l-26.6,28.2c-1.7,1.9-1.7,4.8,0,6.6l26.6,28.2
					c0.9,1,2.2,1.5,3.5,1.5h13.4c1.3,0,2.6-0.5,3.5-1.5l26.6-28.2c1.7-1.9,1.7-4.8,0-6.6l-26.6-28.2
					C802.5,382.1,801.2,381.6,799.9,381.6z"/>
			</g>
			<g>
				<path class="st1" d="M697.9,274.6h-13.4c-1.3,0-2.6,0.5-3.5,1.5l-26.6,28.2c-1.7,1.9-1.7,4.8,0,6.6l26.6,28.2
					c0.9,1,2.2,1.5,3.5,1.5h13.4c1.3,0,2.6-0.5,3.5-1.5l26.6-28.2c1.7-1.9,1.7-4.8,0-6.6l-26.6-28.2
					C700.5,275.1,699.2,274.6,697.9,274.6z"/>
			</g>
			<g>
				<path class="st1" d="M849.9,9.6h-13.4c-1.3,0-2.6,0.5-3.5,1.5l-26.6,28.2c-1.7,1.9-1.7,4.8,0,6.6L833,74.1
					c0.9,1,2.2,1.5,3.5,1.5h13.4c1.3,0,2.6-0.5,3.5-1.5L880,45.9c1.7-1.9,1.7-4.8,0-6.6l-26.6-28.2C852.5,10.1,851.2,9.6,849.9,9.6z
					"/>
			</g>
			<g>
				<path class="st1" d="M567.3,300H559c-0.8,0-1.6,0.3-2.2,0.9l-16.4,17.4c-1.1,1.1-1.1,2.9,0,4.1l16.4,17.4
					c0.6,0.6,1.3,0.9,2.2,0.9h8.3c0.8,0,1.6-0.3,2.2-0.9l16.4-17.4c1.1-1.1,1.1-2.9,0-4.1l-16.4-17.4
					C568.9,300.3,568.1,300,567.3,300z"/>
			</g>
			<g>
				<path class="st1" d="M567.3,341H559c-0.8,0-1.6,0.3-2.2,0.9l-16.4,17.4c-1.1,1.1-1.1,2.9,0,4.1l16.4,17.4
					c0.6,0.6,1.3,0.9,2.2,0.9h8.3c0.8,0,1.6-0.3,2.2-0.9l16.4-17.4c1.1-1.1,1.1-2.9,0-4.1l-16.4-17.4
					C568.9,341.3,568.1,341,567.3,341z"/>
			</g>
			<g>
				<path class="st1" d="M410.3,456H402c-0.8,0-1.6,0.3-2.2,0.9l-16.4,17.4c-1.1,1.1-1.1,2.9,0,4.1l16.4,17.4
					c0.6,0.6,1.3,0.9,2.2,0.9h8.3c0.8,0,1.6-0.3,2.2-0.9l16.4-17.4c1.1-1.1,1.1-2.9,0-4.1l-16.4-17.4
					C411.9,456.3,411.1,456,410.3,456z"/>
			</g>
			<g>
				<path class="st1" d="M584.3,491H576c-0.8,0-1.6,0.3-2.2,0.9l-16.4,17.4c-1.1,1.1-1.1,2.9,0,4.1l16.4,17.4
					c0.6,0.6,1.3,0.9,2.2,0.9h8.3c0.8,0,1.6-0.3,2.2-0.9l16.4-17.4c1.1-1.1,1.1-2.9,0-4.1l-16.4-17.4
					C585.9,491.3,585.1,491,584.3,491z"/>
			</g>
			<g>
				<path class="st1" d="M875.3,219H867c-0.8,0-1.6,0.3-2.2,0.9l-16.4,17.4c-1.1,1.1-1.1,2.9,0,4.1l16.4,17.4
					c0.6,0.6,1.3,0.9,2.2,0.9h8.3c0.8,0,1.6-0.3,2.2-0.9l16.4-17.4c1.1-1.1,1.1-2.9,0-4.1l-16.4-17.4
					C876.9,219.3,876.1,219,875.3,219z"/>
			</g>
			<g>
				<path class="st1" d="M875.3,178H867c-0.8,0-1.6,0.3-2.2,0.9l-16.4,17.4c-1.1,1.1-1.1,2.9,0,4.1l16.4,17.4
					c0.6,0.6,1.3,0.9,2.2,0.9h8.3c0.8,0,1.6-0.3,2.2-0.9l16.4-17.4c1.1-1.1,1.1-2.9,0-4.1l-16.4-17.4
					C876.9,178.3,876.1,178,875.3,178z"/>
			</g>
			<g>
				<path class="st1" d="M844.3,158H836c-0.8,0-1.6,0.3-2.2,0.9l-16.4,17.4c-1.1,1.1-1.1,2.9,0,4.1l16.4,17.4
					c0.6,0.6,1.3,0.9,2.2,0.9h8.3c0.8,0,1.6-0.3,2.2-0.9l16.4-17.4c1.1-1.1,1.1-2.9,0-4.1l-16.4-17.4
					C845.9,158.3,845.1,158,844.3,158z"/>
			</g>
			<g>
				<path class="st1" d="M814.3,97H806c-0.8,0-1.6,0.3-2.2,0.9l-16.4,17.4c-1.1,1.1-1.1,2.9,0,4.1l16.4,17.4
					c0.6,0.6,1.3,0.9,2.2,0.9h8.3c0.8,0,1.6-0.3,2.2-0.9l16.4-17.4c1.1-1.1,1.1-2.9,0-4.1l-16.4-17.4C815.9,97.3,815.1,97,814.3,97z
					"/>
			</g>
			<g>
				<path class="st1" d="M844.3,76H836c-0.8,0-1.6,0.3-2.2,0.9l-16.4,17.4c-1.1,1.1-1.1,2.9,0,4.1l16.4,17.4
					c0.6,0.6,1.3,0.9,2.2,0.9h8.3c0.8,0,1.6-0.3,2.2-0.9l16.4-17.4c1.1-1.1,1.1-2.9,0-4.1l-16.4-17.4C845.9,76.3,845.1,76,844.3,76z
					"/>
			</g>
			<g>
				<path class="st1" d="M844.3,117H836c-0.8,0-1.6,0.3-2.2,0.9l-16.4,17.4c-1.1,1.1-1.1,2.9,0,4.1l16.4,17.4
					c0.6,0.6,1.3,0.9,2.2,0.9h8.3c0.8,0,1.6-0.3,2.2-0.9l16.4-17.4c1.1-1.1,1.1-2.9,0-4.1l-16.4-17.4
					C845.9,117.3,845.1,117,844.3,117z"/>
			</g>
			<g>
				<path class="st1" d="M930.3,161H922c-0.8,0-1.6,0.3-2.2,0.9l-16.4,17.4c-1.1,1.1-1.1,2.9,0,4.1l16.4,17.4
					c0.6,0.6,1.3,0.9,2.2,0.9h8.3c0.8,0,1.6-0.3,2.2-0.9l16.4-17.4c1.1-1.1,1.1-2.9,0-4.1l-16.4-17.4
					C931.9,161.3,931.1,161,930.3,161z"/>
			</g>
			<g>
				<path class="st1" d="M880.3-11H872c-0.8,0-1.6,0.3-2.2,0.9L853.4,7.4c-1.1,1.1-1.1,2.9,0,4.1l16.4,17.4c0.6,0.6,1.3,0.9,2.2,0.9
					h8.3c0.8,0,1.6-0.3,2.2-0.9l16.4-17.4c1.1-1.1,1.1-2.9,0-4.1L882.5-10C881.9-10.7,881.1-11,880.3-11z"/>
			</g>
			<g>
				<path class="st1" d="M874.3,137H866c-0.8,0-1.6,0.3-2.2,0.9l-16.4,17.4c-1.1,1.1-1.1,2.9,0,4.1l16.4,17.4
					c0.6,0.6,1.3,0.9,2.2,0.9h8.3c0.8,0,1.6-0.3,2.2-0.9l16.4-17.4c1.1-1.1,1.1-2.9,0-4.1l-16.4-17.4
					C875.9,137.3,875.1,137,874.3,137z"/>
			</g>
			<g>
				<path class="st1" d="M786.3,56H778c-0.8,0-1.6,0.3-2.2,0.9l-16.4,17.4c-1.1,1.1-1.1,2.9,0,4.1l16.4,17.4
					c0.6,0.6,1.3,0.9,2.2,0.9h8.3c0.8,0,1.6-0.3,2.2-0.9l16.4-17.4c1.1-1.1,1.1-2.9,0-4.1l-16.4-17.4C787.9,56.3,787.1,56,786.3,56z
					"/>
			</g>
			<g>
				<path class="st1" d="M784.3,118H776c-0.8,0-1.6,0.3-2.2,0.9l-16.4,17.4c-1.1,1.1-1.1,2.9,0,4.1l16.4,17.4
					c0.6,0.6,1.3,0.9,2.2,0.9h8.3c0.8,0,1.6-0.3,2.2-0.9l16.4-17.4c1.1-1.1,1.1-2.9,0-4.1l-16.4-17.4
					C785.9,118.3,785.1,118,784.3,118z"/>
			</g>
			<g>
				<path class="st1" d="M741.3,185H733c-0.8,0-1.6,0.3-2.2,0.9l-16.4,17.4c-1.1,1.1-1.1,2.9,0,4.1l16.4,17.4
					c0.6,0.6,1.3,0.9,2.2,0.9h8.3c0.8,0,1.6-0.3,2.2-0.9l16.4-17.4c1.1-1.1,1.1-2.9,0-4.1l-16.4-17.4
					C742.9,185.3,742.1,185,741.3,185z"/>
			</g>
			<g>
				<path class="st1" d="M711.3,206H703c-0.8,0-1.6,0.3-2.2,0.9l-16.4,17.4c-1.1,1.1-1.1,2.9,0,4.1l16.4,17.4
					c0.6,0.6,1.3,0.9,2.2,0.9h8.3c0.8,0,1.6-0.3,2.2-0.9l16.4-17.4c1.1-1.1,1.1-2.9,0-4.1l-16.4-17.4
					C712.9,206.3,712.1,206,711.3,206z"/>
			</g>
			<g>
				<path class="st1" d="M741.3,267H733c-0.8,0-1.6,0.3-2.2,0.9l-16.4,17.4c-1.1,1.1-1.1,2.9,0,4.1l16.4,17.4
					c0.6,0.6,1.3,0.9,2.2,0.9h8.3c0.8,0,1.6-0.3,2.2-0.9l16.4-17.4c1.1-1.1,1.1-2.9,0-4.1l-16.4-17.4
					C742.9,267.3,742.1,267,741.3,267z"/>
			</g>
			<g>
				<path class="st1" d="M757.3,368H749c-0.8,0-1.6,0.3-2.2,0.9l-16.4,17.4c-1.1,1.1-1.1,2.9,0,4.1l16.4,17.4
					c0.6,0.6,1.3,0.9,2.2,0.9h8.3c0.8,0,1.6-0.3,2.2-0.9l16.4-17.4c1.1-1.1,1.1-2.9,0-4.1l-16.4-17.4
					C758.9,368.3,758.1,368,757.3,368z"/>
			</g>
			<g>
				<path class="st1" d="M741.3,226H733c-0.8,0-1.6,0.3-2.2,0.9l-16.4,17.4c-1.1,1.1-1.1,2.9,0,4.1l16.4,17.4
					c0.6,0.6,1.3,0.9,2.2,0.9h8.3c0.8,0,1.6-0.3,2.2-0.9l16.4-17.4c1.1-1.1,1.1-2.9,0-4.1l-16.4-17.4
					C742.9,226.3,742.1,226,741.3,226z"/>
			</g>
			<g>
				<path class="st1" d="M537.3,321H529c-0.8,0-1.6,0.3-2.2,0.9l-16.4,17.4c-1.1,1.1-1.1,2.9,0,4.1l16.4,17.4
					c0.6,0.6,1.3,0.9,2.2,0.9h8.3c0.8,0,1.6-0.3,2.2-0.9l16.4-17.4c1.1-1.1,1.1-2.9,0-4.1l-16.4-17.4
					C538.9,321.3,538.1,321,537.3,321z"/>
			</g>
			<path class="st1" d="M552.7,444.7h-13.4c-1.3,0-2.6,0.5-3.5,1.5l-26.6,28.2c-1.7,1.9-1.7,4.8,0,6.6l26.6,28.2
				c0.9,1,2.2,1.5,3.5,1.5h13.4c1.3,0,2.6-0.5,3.5-1.5l26.6-28.2c1.7-1.9,1.7-4.8,0-6.6l-26.6-28.2
				C555.3,445.3,554.1,444.7,552.7,444.7z"/>
			<g>
				<path class="st1" d="M446.4,476.8H433c-1.3,0-2.6,0.5-3.5,1.5l-26.6,28.2c-1.7,1.9-1.7,4.8,0,6.6l26.6,28.2
					c0.9,1,2.2,1.5,3.5,1.5h13.4c1.3,0,2.6-0.5,3.5-1.5l26.6-28.2c1.7-1.9,1.7-4.8,0-6.6l-26.6-28.2
					C449,477.3,447.7,476.8,446.4,476.8z"/>
			</g>
			<g>
				<path class="st1" d="M633,510.8h-13.4c-1.3,0-2.6,0.5-3.5,1.5l-26.6,28.2c-1.7,1.9-1.7,4.8,0,6.6l26.6,28.2
					c0.9,1,2.2,1.5,3.5,1.5H633c1.3,0,2.6-0.5,3.5-1.5l26.6-28.2c1.7-1.9,1.7-4.8,0-6.6l-26.6-28.2
					C635.6,511.4,634.4,510.8,633,510.8z"/>
			</g>
		</g>
	</g>
</g>
</svg>
