<?xml version="1.0" encoding="utf-8"?>
<!-- Generator: Adobe Illustrator 22.1.0, SVG Export Plug-In . SVG Version: 6.00 Build 0)  -->
<svg version="1.1" id="Layer_1" xmlns="http://www.w3.org/2000/svg" xmlns:xlink="http://www.w3.org/1999/xlink" x="0px" y="0px"
	 viewBox="0 0 148.7 129" style="enable-background:new 0 0 148.7 129;" xml:space="preserve">
<style type="text/css">
	.st0{fill:#602B7C;}
</style>
<g>
	<path class="st0" d="M87.4,4L87.4,4c1.5,0,3,0.6,4,1.7l51.8,55c2,2.1,2,5.5,0,7.6l-51.8,55c-1,1.1-2.5,1.7-4,1.7l-26,0
		c-1.5,0-3-0.6-4-1.7l-51.8-55c-2-2.1-2-5.5,0-7.6l51.8-55c1-1.1,2.5-1.7,4-1.7L87.4,4 M87.4,0C87.4,0,87.4,0,87.4,0l-26,0
		c-2.6,0-5.1,1.1-7,3L2.6,58c-3.5,3.7-3.5,9.4,0,13.1l51.8,55c1.8,1.9,4.3,3,7,3c0,0,0,0,0,0l26,0c2.6,0,5.1-1.1,7-3l51.8-55
		c3.5-3.7,3.5-9.4,0-13.1L94.3,3C92.5,1.1,90,0,87.4,0L87.4,0z"/>
</g>
</svg>
